<svg width="268" height="357" viewBox="0 0 268 357" fill="none" xmlns="http://www.w3.org/2000/svg">
<path d="M70.3928 14.2443C69.6046 14.6013 68.5422 15.5295 67.9938 16.2792C67.1371 17.4216 67 17.9214 67 19.9563C67 22.3125 67 22.3482 71.5923 31.059C74.1284 35.8785 76.4245 40.1625 76.6987 40.5909C77.1442 41.3406 77.11 41.4477 75.8419 42.1974C56.8557 53.8356 41.5366 72.3996 33.757 93.2127L32.489 96.6399L22.8245 93.2841C17.5468 91.4634 12.646 89.8569 11.9606 89.7498C6.20304 88.7502 2.70739 97.2111 7.23118 101.174C8.63629 102.388 33.8256 111.134 35.8475 111.098C39.0005 111.027 40.577 109.278 41.9821 104.244C49.4532 77.6118 69.6389 55.6563 96.5417 44.8035C108.605 39.9126 120.292 37.6992 134 37.6992C161.314 37.6992 186.092 48.0522 204.256 67.0803C206.826 69.7578 209.91 73.2921 211.144 74.97C217.347 83.2881 222.008 92.3202 224.99 101.852C227.115 108.635 227.423 109.313 229.034 110.313C231.261 111.741 232.769 111.42 246.855 106.529C260.46 101.816 261.454 101.317 262.38 98.9961C263.51 96.2472 262.448 92.3559 260.186 90.7851C257.753 89.1072 257.033 89.2143 246.032 92.9985C240.48 94.9263 235.785 96.5685 235.614 96.6399C235.408 96.7113 234.586 94.962 233.763 92.7843C232.015 88.0719 228.828 81.4674 226.018 76.755C218.341 63.8673 205.558 50.7654 193.186 43.0899C191.884 42.3045 190.753 41.4834 190.684 41.2335C190.582 41.0193 192.398 37.3422 194.66 33.0582C200.452 22.134 200.486 22.0983 200.486 19.992C200.486 17.9928 199.972 16.6719 198.704 15.4581C197.641 14.4228 195.619 13.566 194.249 13.566C192.706 13.6017 190.479 14.7084 189.553 15.9222C189.108 16.4934 186.606 21.063 183.967 26.061C181.328 31.059 179.135 35.2002 179.101 35.2716C179.032 35.3073 177.25 34.6647 175.091 33.8079C166.523 30.3807 157.99 28.1316 148.051 26.7036C143.596 26.061 123.959 26.061 119.777 26.7036C108.845 28.3815 97.3984 31.4874 90.6813 34.5933C89.756 34.986 88.8307 35.343 88.625 35.343C88.4194 35.343 87.8711 34.5576 87.3913 33.6294C83.313 25.7397 78.2752 16.4577 77.6583 15.7437C76.6987 14.6013 74.4711 13.566 72.9974 13.566C72.3463 13.566 71.1468 13.8873 70.3928 14.2443Z" fill="black"/>
<path d="M170.739 75.327C168.717 76.6122 168.271 77.8617 168.271 82.1814C168.271 85.0374 168.168 86.037 167.86 86.037C167.62 86.037 165.564 85.6443 163.302 85.1802C155.419 83.538 153.363 83.3595 143.939 83.3595C134.857 83.3952 133.177 83.538 125.946 84.966C111.278 87.8934 97.1242 94.7478 85.5063 104.494C81.1196 108.171 73.8541 115.954 70.7355 120.309C58.5007 137.338 52.8117 157.044 54.1825 177.465C54.868 188.032 57.8495 199.742 61.8935 208.06C62.2362 208.774 62.1334 209.309 61.0025 211.808C53.2915 229.051 51.8864 250.436 57.1984 269.642C66.5201 303.236 95.7877 328.583 131.258 333.795C134.514 334.259 144.418 334.866 145.995 334.688C146.646 334.616 148.976 334.473 151.135 334.331C155.659 334.081 160.697 333.367 164.775 332.367C166.352 331.974 167.791 331.653 167.963 331.653C168.134 331.653 168.271 333.367 168.271 335.509C168.271 340.114 168.751 341.363 171.047 342.649C172.932 343.72 175.022 343.505 176.77 342.149C178.929 340.435 178.929 340.328 178.827 324.513C178.724 310.697 178.689 310.269 178.004 309.269C177.079 307.948 174.885 306.663 173.549 306.663C171.972 306.663 169.642 308.091 168.922 309.519C168.374 310.554 168.271 311.554 168.271 315.231V319.694L167.174 320.336C165.906 321.014 160.012 322.442 155.419 323.121C150.793 323.835 136.879 323.763 132.115 322.978C125.501 321.871 117.139 319.515 111.895 317.195C96.8158 310.59 83.7242 299.202 75.4649 285.564C70.29 276.996 67.1027 268.393 65.2178 257.754C64.361 252.899 64.361 239.333 65.2178 234.549C65.9375 230.479 67.6168 223.839 68.3708 221.947L68.9191 220.59L69.6731 221.59C70.1186 222.125 71.2153 223.625 72.1406 224.91C74.6767 228.409 81.6337 235.691 85.5063 238.94C96.9529 248.543 110.456 255.148 124.918 258.218C131.807 259.718 135.713 260.075 144.281 260.075C152.849 260.075 156.927 259.682 163.405 258.254C165.564 257.79 167.517 257.397 167.791 257.397C168.168 257.397 168.271 258.147 168.271 261.288C168.271 264.716 168.374 265.287 169.059 266.322C171.218 269.678 175.708 269.821 177.935 266.608L178.724 265.43V250.721C178.724 236.37 178.724 236.013 178.004 235.013C176.188 232.478 173.583 231.764 171.013 233.121C168.751 234.335 168.477 235.12 168.271 240.582L168.1 245.402L167.072 246.009C165.975 246.687 159.498 248.115 154.22 248.865C150.039 249.436 138.524 249.436 134.343 248.865C114.465 246.08 98.3237 237.869 85.1293 223.803C81.4966 219.912 77.9324 215.235 75.2935 210.916L74.0598 208.881L76.4245 205.204C83.9984 193.28 94.5539 183.748 107.44 177.251C120.154 170.824 131.601 168.254 146.063 168.611C153.809 168.79 157.613 169.289 164.159 170.932L168.1 171.931L168.271 176.894C168.442 182.213 168.614 182.855 170.293 184.319C172.521 186.247 176.119 185.676 177.901 183.105L178.724 181.892V167.183C178.724 152.903 178.689 152.475 178.004 151.511C175.605 148.119 171.253 148.012 169.094 151.332C168.34 152.51 168.271 152.939 168.271 156.616C168.271 158.829 168.168 160.65 167.997 160.65C167.86 160.65 167.209 160.507 166.592 160.293C164.878 159.793 158.298 158.615 154.734 158.187C139.038 156.33 122.485 158.758 107.783 165.112C93.2516 171.36 80.2286 181.784 71.0096 194.494C68.7135 197.635 68.7478 197.671 67.2056 192.102C65.4577 185.89 64.738 181.142 64.5324 174.038C64.224 164.434 65.1836 157.687 68.0623 148.548C71.4894 137.623 77.3498 127.842 85.6091 119.131C98.4265 105.601 114.363 97.4967 134 94.5693C135.611 94.3194 140.272 94.1409 144.453 94.1409C152.609 94.1409 157.921 94.7835 164.673 96.5685C166.523 97.0683 168.065 97.461 168.134 97.461C168.202 97.461 168.271 99.6387 168.271 102.28C168.271 107.707 168.511 108.599 170.43 110.099C171.355 110.848 171.972 111.027 173.48 111.027C175.708 111.027 177.284 110.099 178.278 108.171C178.861 106.993 178.895 106.029 178.827 92.5701C178.724 78.6471 178.689 78.2187 178.004 77.2191C176.188 74.6487 173.069 73.8633 170.739 75.327Z" fill="black"/>
</svg>
